# xmcd CD database file
#
# Track frame offsets:
#	150
#	18328
#	30516
#	32172
#	48077
#	61400
#	75809
#	90741
#	101359
#	114611
#	132137
#	143917
#	146646
#	160500
#	177147
#	194366
#	209240
#	224581
#	237789
#	262776
#	288784
#	301319
#
# Disc length: 4202 seconds
#
# Revision: 0
# Processed by: cddbd v1.5.2PL0 Copyright (c) Steve Scherf et al.
# Submitted via: CDex 1.70beta2
#
DISCID=27106816
DTITLE=ECD - Private Lesson 2
DYEAR=1900
DGENRE=Jazz
TTITLE0=YUJI - NAKAURA
TTITLE1=玉三郎 - 抵抗
TTITLE2=深山エミ - 死神の子守唄
TTITLE3=青木リカ - 混血児リカ
TTITLE4=ピート・マック・Jr - ブラック・コーヒー
TTITLE5=永田英二 - 大人は判ってくれない
TTITLE6=青山八郎 - スーパーエキスプレス109
TTITLE7=シンガーズ・スリー - 女の花ざかり
TTITLE8=志穂美悦子 - 恋のサテディー・ナイト
TTITLE9=サーカス - MOVING
TTITLE10=大野克夫 - ミスターBON
TTITLE11=高沢智昌 - オープニング・テーマ
TTITLE12=岡崎広志 - ラブス・スウィート・サレンダー
TTITLE13=凡天太郎 - 網走番外地
TTITLE14=佐藤勝 - 野良犬(メイン・テーマ)
TTITLE15=安藤昇 - 血と命
TTITLE16=東てる美 - いさかいのあとに
TTITLE17=田中真弓 - 忍豚レゲエ
TTITLE18=小林泉美 - ハロー・ハロー・ハロー
TTITLE19=ラストショウ - ブルファイト
TTITLE20=茶木みやこ - 幻の人
TTITLE21=村井邦彦 - 朝・昼・夜
EXTD=
EXTT0=
EXTT1=
EXTT2=
EXTT3=
EXTT4=
EXTT5=
EXTT6=
EXTT7=
EXTT8=
EXTT9=
EXTT10=
EXTT11=
EXTT12=
EXTT13=
EXTT14=
EXTT15=
EXTT16=
EXTT17=
EXTT18=
EXTT19=
EXTT20=
EXTT21=
PLAYORDER=
